<svg id="visual" viewBox="0 0 900 600" width="900" height="600" xmlns="http://www.w3.org/2000/svg" xmlns:xlink="http://www.w3.org/1999/xlink" version="1.1"><rect x="0" y="0" width="900" height="600" fill="#e6f2fe"></rect><defs><linearGradient id="grad1_0" x1="33.3%" y1="0%" x2="100%" y2="100%"><stop offset="20%" stop-color="#e6f2fe" stop-opacity="1"></stop><stop offset="80%" stop-color="#e6f2fe" stop-opacity="1"></stop></linearGradient></defs><defs><linearGradient id="grad2_0" x1="0%" y1="0%" x2="66.7%" y2="100%"><stop offset="20%" stop-color="#e6f2fe" stop-opacity="1"></stop><stop offset="80%" stop-color="#e6f2fe" stop-opacity="1"></stop></linearGradient></defs><g transform="translate(900, 0)"><path d="M0 351.5C-43.6 344.6 -87.2 337.7 -133.9 323.4C-180.6 309 -230.4 287.3 -248.6 248.6C-266.7 209.8 -253.3 154.1 -265.2 109.8C-277 65.6 -314.3 32.8 -351.5 0L0 0Z" fill="#002f71"></path></g><g transform="translate(0, 600)"><path d="M0 -351.5C51.9 -352.4 103.8 -353.2 134.5 -324.8C165.3 -296.4 174.8 -238.7 204.4 -204.4C233.9 -170 283.5 -159.1 311.3 -129C339.2 -98.8 345.4 -49.4 351.5 0L0 0Z" fill="#002f71"></path></g></svg>